<svg width="28" height="28" viewBox="0 0 28 28" fill="none" xmlns="http://www.w3.org/2000/svg">
<path d="M11.6667 4.66665C11.6667 2.1 9.56672 0 7.00002 0C4.43332 0 2.33337 2.1 2.33337 4.66665C2.33337 7.2333 4.43337 9.3333 7.00002 9.3333C9.56667 9.3333 11.6667 7.23335 11.6667 4.66665ZM7.00002 7C5.7167 7 4.66667 5.95003 4.66667 4.66665C4.66667 3.38327 5.71664 2.3333 7.00002 2.3333C8.28335 2.3333 9.33337 3.38327 9.33337 4.66665C9.33337 5.95003 8.2834 7 7.00002 7Z" fill="#1E8BC3"/>
<path d="M11.0834 10.5C9.45007 10.5 8.16675 11.7833 8.16675 13.4167V28H10.5001V13.4167C10.5001 13.0667 10.7334 12.8333 11.0834 12.8333C11.4334 12.8333 11.6667 13.0667 11.6667 13.4167V19.8333H14.0001V13.4167C14 11.7833 12.7167 10.5 11.0834 10.5Z" fill="#1E8BC3"/>
<path d="M2.91667 10.5C1.28332 10.5 0 11.7833 0 13.4167V19.8333H2.33335V13.4167C2.33335 13.0667 2.5667 12.8333 2.91667 12.8333C3.26665 12.8333 3.5 13.0667 3.5 13.4167V28H5.83335V13.4167C5.83335 11.7833 4.55002 10.5 2.91667 10.5Z" fill="#1E8BC3"/>
<path d="M23.6584 19.6667L20.9751 16.9833L19.3417 18.6167L23.6584 22.9333L27.9751 18.6167L26.3417 16.9833L23.6584 19.6667Z" fill="#FF5061"/>
<path d="M19.3417 12.3167L20.9751 13.95L23.6584 11.2666L26.3417 13.95L27.9751 12.3167L23.6584 8L19.3417 12.3167Z" fill="#FF5061"/>
</svg>
