<svg width="33" height="33" viewBox="0 0 33 33" fill="none" xmlns="http://www.w3.org/2000/svg">
<path d="M28.458 3.5272H25.2676V2.30828C25.2676 1.95207 24.9784 1.66292 24.6222 1.66292C24.266 1.66292 23.9769 1.95207 23.9769 2.30828V3.5272H13.079V2.30828C13.079 1.95207 12.7898 1.66292 12.4336 1.66292C12.0774 1.66292 11.7883 1.95207 11.7883 2.30828V3.5272H8.38273C6.4433 3.52945 4.87175 5.10077 4.86951 7.0402V17.795C4.86951 18.1512 5.15865 18.4401 5.51486 18.4401C5.87107 18.4401 6.15999 18.1512 6.15999 17.795V13.5648H30.6807V27.8326C30.6792 29.0596 29.685 30.0538 28.458 30.0551H8.38273C7.15572 30.0538 6.16156 29.0596 6.15999 27.8326V24.1043C6.15999 23.7481 5.87107 23.4589 5.51486 23.4589C5.15865 23.4589 4.86951 23.7481 4.86951 24.1043V27.8326C4.87175 29.772 6.4433 31.3436 8.38273 31.3458H28.458C30.3974 31.3436 31.969 29.772 31.9712 27.8326V7.0402C31.969 5.10077 30.3974 3.52945 28.458 3.5272ZM6.15999 12.2741V7.0402C6.16156 5.8132 7.15572 4.81903 8.38273 4.81769H11.7883V6.56981C10.8165 6.88699 10.2196 7.86343 10.3802 8.87307C10.5409 9.88249 11.4114 10.6254 12.4336 10.6254C13.4558 10.6254 14.3264 9.88249 14.487 8.87307C14.6476 7.86343 14.0507 6.88699 13.079 6.56981V4.81769H23.9769V6.56981C23.0051 6.88699 22.4082 7.86343 22.5688 8.87307C22.7295 9.88249 23.6 10.6254 24.6222 10.6254C25.6444 10.6254 26.515 9.88249 26.6756 8.87307C26.8362 7.86343 26.2393 6.88699 25.2676 6.56981V4.81769H28.458C29.685 4.81903 30.6792 5.8132 30.6807 7.0402V12.2741H6.15999ZM12.4336 7.75733C12.8692 7.75733 13.2223 8.1104 13.2223 8.54602C13.2223 8.98142 12.8692 9.33471 12.4336 9.33471C11.9982 9.33471 11.6449 8.98142 11.6449 8.54602C11.6456 8.11063 11.9985 7.75778 12.4336 7.75733ZM24.6222 7.75733C25.0578 7.75733 25.4109 8.1104 25.4109 8.54602C25.4109 8.98142 25.0578 9.33471 24.6222 9.33471C24.1868 9.33471 23.8335 8.98142 23.8335 8.54602C23.8342 8.11063 24.187 7.75778 24.6222 7.75733Z" fill="#1E8BC3"/>
<path d="M12.1206 23.8631C11.8686 24.1153 11.8686 24.5235 12.1206 24.7756C12.3727 25.0278 12.7809 25.0278 13.0331 24.7756L16.4029 21.4058C16.6549 21.1539 16.6549 20.7454 16.4029 20.4935L13.0331 17.1236C12.7809 16.8715 12.3727 16.8715 12.1206 17.1236C11.8686 17.3757 11.8686 17.784 12.1206 18.0361L14.3888 20.3044H1.67892C1.32271 20.3044 1.03357 20.5933 1.03357 20.9495C1.03357 21.3059 1.32271 21.5949 1.67892 21.5949H14.3888L12.1206 23.8631Z" fill="#FF5061"/>
</svg>
