<svg width="37" height="37" viewBox="0 0 37 37" fill="none" xmlns="http://www.w3.org/2000/svg">
<path d="M32.2022 5.0724H28.9284V3.82179C28.9284 3.45609 28.6317 3.15966 28.2663 3.15966C27.9006 3.15966 27.6041 3.45609 27.6041 3.82179V5.0724H16.4216V3.82179C16.4216 3.45609 16.1252 3.15966 15.7595 3.15966C15.394 3.15966 15.0976 3.45609 15.0976 3.82179V5.0724H11.603C9.61298 5.0747 8.00035 6.6871 7.99805 8.67717V19.7124C7.99805 20.0781 8.2947 20.3745 8.66018 20.3745C9.02588 20.3745 9.3223 20.0781 9.3223 19.7124V15.3719H34.4827V30.0121C34.4813 31.271 33.4611 32.2912 32.2022 32.2926H11.603C10.3439 32.2912 9.32368 31.271 9.3223 30.0121V26.1864C9.3223 25.8209 9.02588 25.5243 8.66018 25.5243C8.2947 25.5243 7.99805 25.8209 7.99805 26.1864V30.0121C8.00035 32.0022 9.61298 33.6146 11.603 33.6169H32.2022C34.1923 33.6146 35.8047 32.0022 35.807 30.0121V8.67717C35.8047 6.6871 34.1923 5.0747 32.2022 5.0724ZM9.3223 14.0476V8.67717C9.32368 7.41827 10.3439 6.39804 11.603 6.39666H15.0976V8.19432C14.1004 8.51998 13.4879 9.5218 13.6525 10.5577C13.8175 11.5936 14.7107 12.3558 15.7595 12.3558C16.8085 12.3558 17.7017 11.5936 17.8667 10.5577C18.0312 9.5218 17.4188 8.51998 16.4216 8.19432V6.39666H27.6041V8.19432C26.6069 8.51998 25.9945 9.5218 26.159 10.5577C26.3241 11.5936 27.2173 12.3558 28.2663 12.3558C29.315 12.3558 30.2082 11.5936 30.3732 10.5577C30.538 9.5218 29.9256 8.51998 28.9284 8.19432V6.39666H32.2022C33.4611 6.39804 34.4813 7.41827 34.4827 8.67717V14.0476H9.3223ZM15.7595 9.41294C16.2064 9.41294 16.5689 9.77519 16.5689 10.2221C16.5689 10.6691 16.2064 11.0313 15.7595 11.0313C15.3128 11.0313 14.9503 10.6691 14.9503 10.2221C14.951 9.77565 15.313 9.4134 15.7595 9.41294ZM28.2663 9.41294C28.713 9.41294 29.0754 9.77519 29.0754 10.2221C29.0754 10.6691 28.713 11.0313 28.2663 11.0313C27.8193 11.0313 27.4568 10.6691 27.4568 10.2221C27.4575 9.77565 27.8195 9.4134 28.2663 9.41294Z" fill="#1E8BC3"/>
<path d="M3.37999 23.6115H16.4216C16.7873 23.6115 17.0838 23.3151 17.0838 22.9494C17.0838 22.5839 16.7873 22.2873 16.4216 22.2873H3.37999L5.70745 19.9598C5.96614 19.7014 5.96614 19.2823 5.70745 19.0236C5.44877 18.7649 5.02991 18.7649 4.77122 19.0236L1.31352 22.4813C1.05484 22.74 1.05484 23.1591 1.31352 23.4175L4.77122 26.8752C5.02991 27.1339 5.44877 27.1339 5.70745 26.8752C5.96614 26.6168 5.96614 26.1977 5.70745 25.939L3.37999 23.6115Z" fill="#FF5061"/>
</svg>
